<svg width="22" height="20" viewBox="0 0 22 20" fill="none" xmlns="http://www.w3.org/2000/svg">
<path d="M9.89478 0.993969C10.1995 0.0839989 11.4866 0.0840009 11.7913 0.993971L13.6035 6.40603C13.74 6.81371 14.1218 7.0885 14.5518 7.0885H20.3507C21.3267 7.0885 21.7246 8.34344 20.9269 8.90581L16.2878 12.1764C15.9267 12.4309 15.7754 12.8923 15.9157 13.3112L17.6999 18.6394C18.0066 19.5554 16.9649 20.3308 16.1754 19.7742L11.4192 16.4211C11.0737 16.1775 10.6123 16.1775 10.2668 16.4211L5.51066 19.7742C4.72111 20.3308 3.67947 19.5554 3.98621 18.6394L5.77034 13.3112C5.91062 12.8923 5.75937 12.4309 5.39829 12.1764L0.759145 8.90581C-0.0385475 8.34344 0.359345 7.0885 1.33534 7.0885H7.1343C7.56422 7.0885 7.94604 6.8137 8.08255 6.40602L9.89478 0.993969Z" fill="#070707"/>
</svg>
